<svg id="SvgjsSvg1011" width="288" height="288" xmlns="http://www.w3.org/2000/svg" version="1.1" xmlns:xlink="http://www.w3.org/1999/xlink" xmlns:svgjs="http://svgjs.com/svgjs"><defs id="SvgjsDefs1012"></defs><g id="SvgjsG1013"><svg xmlns="http://www.w3.org/2000/svg" viewBox="0 0 24 24" width="288" height="288"><path d="M5,5H18C19.66,5 21,6.34 21,8V17C21,18.66 19.66,20 18,20H5C3.34,20 2,18.66 2,17V8C2,6.34 3.34,5 5,5M5,6C4.5,6 4.06,6.17 3.72,6.47L11.5,11.5L19.28,6.47C18.94,6.17 18.5,6 18,6H5M11.5,12.71L3.13,7.28C3.05,7.5 3,7.75 3,8V17C3,18.1 3.9,19 5,19H18C19.1,19 20,18.1 20,17V8C20,7.75 19.95,7.5 19.87,7.28L11.5,12.71Z" fill="#ffffff" class="svgShape color000000-0 selectable"></path></svg></g></svg>